<svg width="63" height="63" viewBox="0 0 63 63" fill="none" xmlns="http://www.w3.org/2000/svg">
<path d="M31.1998 60.5139C15.0233 60.5139 1.85453 47.3451 1.85453 31.1686C1.85453 14.9921 15.0233 1.82336 31.1998 1.82336C47.3763 1.82336 60.545 14.9921 60.545 31.1686C60.545 47.3451 47.3763 60.5139 31.1998 60.5139ZM53.236 9.13241C50.3685 6.26489 47.0334 4.02075 43.3244 2.44674C39.4751 0.825968 35.392 0 31.1842 0C26.9764 0 22.8933 0.825968 19.044 2.44674C15.335 4.02075 11.9999 6.26489 9.1324 9.13241C6.26489 11.9999 4.02075 15.335 2.44674 19.044C0.825968 22.8934 0 26.9764 0 31.1842C0 35.392 0.825968 39.4751 2.44674 43.3244C4.02075 47.0334 6.26489 50.3685 9.1324 53.236C11.9999 56.1035 15.335 58.3476 19.044 59.9217C22.8933 61.5424 26.9764 62.3684 31.1842 62.3684C35.392 62.3684 39.4751 61.5424 43.3244 59.9217C47.0334 58.3476 50.3685 56.1035 53.236 53.236C56.1035 50.3685 58.3476 47.0334 59.9217 43.3244C61.5424 39.4751 62.3684 35.392 62.3684 31.1842C62.3684 26.9764 61.5424 22.8934 59.9217 19.044C58.3476 15.335 56.1035 11.9999 53.236 9.13241Z" fill="white"/>
<path d="M14.188 12.9817C13.8295 12.6233 13.2529 12.6233 12.8945 12.9817C8.06335 17.844 5.39844 24.3115 5.39844 31.1686C5.39844 38.0257 8.06335 44.4776 12.8945 49.3555C13.0659 49.5425 13.3153 49.6204 13.549 49.6204C13.7828 49.6204 14.0166 49.5269 14.188 49.3555C14.5464 48.9971 14.5464 48.4204 14.188 48.062C9.69971 43.5425 7.2218 37.5426 7.2218 31.1686C7.2218 24.7946 9.69971 18.7947 14.188 14.2752C14.5464 13.9168 14.5464 13.3402 14.188 12.9817Z" fill="white"/>
<path d="M48.2141 12.9817C47.8557 13.3402 47.8557 13.9168 48.2141 14.2752C52.7024 18.7947 55.1803 24.7946 55.1803 31.1686C55.1803 37.5426 52.7024 43.5425 48.2141 48.062C47.8557 48.4204 47.8557 48.9971 48.2141 49.3555C48.3856 49.5269 48.6193 49.6204 48.8531 49.6204C49.0869 49.6204 49.3206 49.5269 49.5076 49.3555C54.3388 44.4932 57.0037 38.0257 57.0037 31.1686C57.0037 24.3115 54.3388 17.8596 49.5076 12.9817C49.1492 12.6233 48.5726 12.6233 48.2141 12.9817Z" fill="white"/>
<path d="M41.3755 52.8928C38.1807 54.3889 34.7678 55.1525 31.199 55.1525C27.6302 55.1525 24.2172 54.3889 21.0224 52.8928C20.5705 52.6746 20.025 52.8772 19.8068 53.3291C19.5887 53.7811 19.7913 54.3265 20.2432 54.5447C23.6873 56.1499 27.3652 56.9759 31.1834 56.9759C35.0015 56.9759 38.695 56.1655 42.1236 54.5447C42.5755 54.3265 42.7781 53.7811 42.5599 53.3291C42.3418 52.8772 41.7963 52.6746 41.3444 52.8928H41.3755Z" fill="white"/>
<path d="M21.0303 9.44344C24.2251 7.94735 27.6381 7.18372 31.2069 7.18372C34.7757 7.18372 38.1886 7.94735 41.3834 9.44344C41.5081 9.50578 41.6328 9.53695 41.773 9.53695C42.1159 9.53695 42.4432 9.34993 42.599 9.00708C42.8172 8.55513 42.6146 8.00968 42.1626 7.7915C38.7185 6.18632 35.0406 5.36035 31.2225 5.36035C27.4043 5.36035 23.7108 6.17074 20.2823 7.7915C19.8303 8.00968 19.6277 8.55513 19.8459 9.00708C20.0641 9.45902 20.6095 9.66162 21.0615 9.44344H21.0303Z" fill="white"/>
<path d="M45.071 31.4011L23.6582 43.7594C23.5335 43.8218 23.4244 43.7906 23.3777 43.7594C23.3309 43.7283 23.2374 43.6659 23.2374 43.5257V18.7934C23.2374 18.6531 23.3309 18.5752 23.3777 18.5596C23.4089 18.544 23.4556 18.5284 23.5179 18.5284C23.5803 18.5284 23.6114 18.5284 23.6582 18.5596L45.071 30.918C45.1957 30.9803 45.2113 31.105 45.2113 31.1517C45.2113 31.1985 45.1957 31.3232 45.071 31.3855V31.4011ZM45.9905 29.3439L24.5777 16.9856C23.9231 16.6116 23.1283 16.6116 22.4738 16.9856C21.8193 17.3596 21.4141 18.0453 21.4141 18.809V43.5413C21.4141 44.3049 21.8037 44.9906 22.4738 45.3646C22.8011 45.5516 23.1595 45.6451 23.5335 45.6451C23.892 45.6451 24.2504 45.5516 24.5933 45.3646L46.0061 33.0063C46.6606 32.6322 47.0658 31.9465 47.0658 31.1829C47.0658 30.4193 46.6762 29.7336 46.0061 29.3595L45.9905 29.3439Z" fill="white"/>
</svg>
